# xmcd
#
# Track frame offsets:
#	150
#	16520
#	33218
#	49700
#	65140
#	82051
#	97011
#	114046
#	130959
#	146127
#	164286
#	180979
#	196266
#	211674
#
# Disc length: 3063 seconds
# Revision: 0
# Processed by: cddbd v1.5.2PL0 Copyright (c) Steve Scherf et al.
# Submitted via: dBpowerAMP V12.0
#
DISCID=b40bf50e
DTITLE=Suzy Bogguss - Lucky
DYEAR=2014
DGENRE=Country
TTITLE0=Today I Started Loving You Again
TTITLE1=Silver Wings
TTITLE2=The Bottle Always Let me Down
TTITLE3=I Always Get Lucky With You
TTITLE4=If we Make it Through December
TTITLE5=Let's Chase Each Other Around The Room
TTITLE6=The Running Kind
TTITLE7=Going Where The Lonely go
TTITLE8=Someday When Things Are Good
TTITLE9=I Think I'll Just Stay Here And Drink
TTITLE10=Sing me Back Home
TTITLE11=You Don't Have Very Far to go
TTITLE12=Always Wanting You
TTITLE13=Somewhere Between
EXTD=
EXTT0=
EXTT1=
EXTT2=
EXTT3=
EXTT4=
EXTT5=
EXTT6=
EXTT7=
EXTT8=
EXTT9=
EXTT10=
EXTT11=
EXTT12=
EXTT13=
PLAYORDER=
